<svg id="Layer_1" xmlns="http://www.w3.org/2000/svg" viewBox="0 0 320 320"><title>Logo-light</title><circle cx="160" cy="160" r="154" fill="#fff"/><path d="M662,357a148,148,0,1,1-104.65,43.35A147,147,0,0,1,662,357m0-12A160,160,0,1,0,822,505,160,160,0,0,0,662,345Z" transform="translate(-502 -345)" fill="#67717a"/><circle cx="240" cy="240" r="74" fill="#fff"/><path d="M742,517a68,68,0,1,1-68,68,68.07,68.07,0,0,1,68-68m0-12a80,80,0,1,0,80,80,80,80,0,0,0-80-80Z" transform="translate(-502 -345)" fill="#67717a"/></svg>
